<?xml version="1.0" encoding="UTF-8" standalone="no"?>
<!-- Created with Inkscape (http://www.inkscape.org/) -->

<svg
   xmlns:dc="http://purl.org/dc/elements/1.1/"
   xmlns:cc="http://creativecommons.org/ns#"
   xmlns:rdf="http://www.w3.org/1999/02/22-rdf-syntax-ns#"
   xmlns:svg="http://www.w3.org/2000/svg"
   xmlns="http://www.w3.org/2000/svg"
   xmlns:xlink="http://www.w3.org/1999/xlink"
   xmlns:sodipodi="http://sodipodi.sourceforge.net/DTD/sodipodi-0.dtd"
   xmlns:inkscape="http://www.inkscape.org/namespaces/inkscape"
   width="210mm"
   height="297mm"
   viewBox="0 0 210 297"
   version="1.1"
   id="svg8"
   inkscape:version="0.92.3 (2405546, 2018-03-11)"
   sodipodi:docname="tw-font.svg">
  <title
     id="title4603">teeworlds font</title>
  <defs
     id="defs2">
    <linearGradient
       inkscape:collect="always"
       id="linearGradient4566">
      <stop
         style="stop-color:#faf56e;stop-opacity:1"
         offset="0"
         id="stop4562" />
      <stop
         style="stop-color:#ffaa2d;stop-opacity:1"
         offset="1"
         id="stop4564" />
    </linearGradient>
    <linearGradient
       inkscape:collect="always"
       xlink:href="#linearGradient4566"
       id="linearGradient4583"
       gradientUnits="userSpaceOnUse"
       x1="60.854168"
       y1="58.875"
       x2="60.589584"
       y2="78.189583" />
  </defs>
  <sodipodi:namedview
     id="base"
     pagecolor="#ffffff"
     bordercolor="#666666"
     borderopacity="1.0"
     inkscape:pageopacity="0.0"
     inkscape:pageshadow="2"
     inkscape:zoom="1"
     inkscape:cx="481.89283"
     inkscape:cy="851.41568"
     inkscape:document-units="mm"
     inkscape:current-layer="layer1"
     showgrid="false"
     inkscape:window-width="1920"
     inkscape:window-height="1017"
     inkscape:window-x="3832"
     inkscape:window-y="-8"
     inkscape:window-maximized="1" />
  <metadata
     id="metadata5">
    <rdf:RDF>
      <cc:Work
         rdf:about="">
        <dc:format>image/svg+xml</dc:format>
        <dc:type
           rdf:resource="http://purl.org/dc/dcmitype/StillImage" />
        <dc:title>teeworlds font</dc:title>
      </cc:Work>
    </rdf:RDF>
  </metadata>
  <g
     inkscape:label="Layer 1"
     inkscape:groupmode="layer"
     id="layer1">
    <path
       sodipodi:type="inkscape:offset"
       inkscape:radius="1.4248248"
       inkscape:original="M 63.996094 59.107422 C 63.574414 59.314128 63.154102 59.36875 62.732422 59.269531 C 62.633203 59.393555 62.529362 59.442773 62.421875 59.417969 L 61.951172 59.417969 L 61.478516 59.417969 L 61.169922 59.580078 L 60.697266 59.580078 L 58.664062 59.580078 C 56.960807 61.275065 56.853516 62.999089 58.341797 64.751953 L 58.8125 64.751953 L 59.134766 64.441406 L 59.605469 64.441406 L 60.078125 64.279297 L 60.697266 64.279297 L 61.169922 64.279297 L 61.800781 64.279297 L 64.617188 64.279297 L 65.25 63.660156 C 66.035482 60.832422 65.616667 59.314128 63.996094 59.107422 z M 81.707031 59.107422 C 81.285352 59.314128 80.863086 59.36875 80.441406 59.269531 C 80.342188 59.393555 80.240299 59.442773 80.132812 59.417969 L 79.660156 59.417969 L 79.189453 59.417969 L 78.878906 59.580078 L 78.408203 59.580078 L 76.375 59.580078 C 74.671745 61.275065 74.564453 62.999089 76.052734 64.751953 L 76.523438 64.751953 L 76.845703 64.441406 L 77.316406 64.441406 L 77.789062 64.279297 L 78.408203 64.279297 L 78.878906 64.279297 L 79.511719 64.279297 L 82.328125 64.279297 L 82.958984 63.660156 C 83.744466 60.832422 83.327604 59.314128 81.707031 59.107422 z M 160.94531 59.107422 L 160.61133 59.431641 C 159.53646 59.348958 158.56888 59.45625 157.70898 59.753906 L 157.54688 60.558594 L 157.38672 61.527344 L 157.54688 62.345703 L 157.54688 63.474609 L 157.38672 63.957031 C 157.51901 64.577148 157.51901 65.168229 157.38672 65.730469 C 157.49421 66.077734 157.54688 66.401563 157.54688 66.699219 L 157.54688 68.96875 L 157.70898 69.451172 L 157.54688 69.935547 L 157.70898 70.419922 L 157.54688 70.742188 L 157.54688 73.804688 L 157.22461 74.126953 C 157.22461 75.317578 157.38652 76.343229 157.70898 77.203125 L 158.51562 77.6875 L 159.64453 77.525391 C 160.26465 77.525391 160.80456 77.632682 161.26758 77.847656 L 162.07422 77.6875 C 162.52897 76.852409 162.79818 76.044792 162.88086 75.267578 C 162.74857 74.374609 162.58665 73.672786 162.39648 73.160156 L 162.55859 72.675781 C 162.39323 71.543034 162.4459 70.522786 162.71875 69.613281 L 162.55859 69.291016 L 162.55859 68.646484 L 162.71875 68.310547 L 162.55859 67.988281 C 162.53379 67.343359 162.58646 66.752279 162.71875 66.214844 C 162.52858 65.619531 162.47591 65.08112 162.55859 64.601562 L 162.55859 63.3125 L 162.71875 60.076172 C 162.09863 59.563542 161.50755 59.239714 160.94531 59.107422 z M 272.34375 59.107422 C 271.71536 59.570443 271.39694 60.158073 271.38867 60.869141 L 271.55078 61.513672 L 271.71094 62.160156 L 272.50391 63.126953 L 273.95508 66.015625 C 274.21966 66.875521 274.38158 67.625065 274.43945 68.261719 L 274.76172 68.744141 L 274.92383 69.390625 C 275.03958 69.547721 275.09225 69.707682 275.08398 69.873047 C 275.37337 70.286458 275.53184 70.712174 275.55664 71.150391 L 276.20117 72.119141 L 276.36133 73.085938 C 277.17161 74.375781 277.6554 75.65638 277.8125 76.929688 C 281.15286 78.451042 283.0265 78.18724 283.43164 76.136719 L 283.10938 75.492188 L 282.94727 74.685547 C 281.67396 73.139388 280.97904 71.427669 280.86328 69.550781 C 280.50775 69.120833 280.24049 68.691667 280.05859 68.261719 L 279.73633 66.970703 L 279.41211 66.662109 L 279.25195 66.177734 L 279.08984 65.693359 L 278.92969 65.371094 L 278.61914 64.404297 L 278.61914 63.919922 C 278.48685 63.820703 278.43223 63.716862 278.45703 63.609375 C 278.2834 63.2125 278.17611 62.837956 278.13477 62.482422 C 277.61387 61.754818 277.34661 61.005273 277.33008 60.236328 C 276.80918 59.839453 276.37806 59.462956 276.03906 59.107422 C 274.66654 59.388542 273.43516 59.388542 272.34375 59.107422 z M 179.06641 59.144531 C 178.43802 59.392578 177.78346 59.450651 177.10547 59.318359 L 176.12695 59.640625 L 175.63086 61.775391 L 175.63086 62.257812 C 175.84583 63.274805 175.8985 64.152799 175.79102 64.888672 L 175.95312 65.867188 L 175.95312 67.181641 C 175.92832 68.297852 175.92832 69.225065 175.95312 69.960938 L 175.79102 70.457031 L 175.95312 71.609375 L 175.79102 71.931641 L 175.79102 73.246094 C 175.74141 74.908008 175.8541 76.273242 176.12695 77.339844 L 176.60938 77.835938 C 178.05632 77.695378 179.25964 77.695378 180.21875 77.835938 C 180.54948 77.587891 180.87676 77.422526 181.19922 77.339844 C 181.17441 76.355924 181.28516 75.483333 181.5332 74.722656 L 181.35938 73.730469 L 181.35938 73.085938 L 181.35938 72.427734 L 181.19922 71.609375 L 181.35938 70.953125 C 181.33457 70.242057 181.2819 69.638672 181.19922 69.142578 L 181.19922 67.34375 L 181.19922 65.707031 C 181.33978 63.110807 181.23249 60.980273 180.87695 59.318359 L 180.38086 59.318359 C 179.85996 59.202604 179.42194 59.144531 179.06641 59.144531 z M 183.6543 59.144531 C 182.48021 60.591471 182.15293 62.180143 182.67383 63.908203 C 183.19473 64.288542 183.6347 64.561198 183.99023 64.726562 C 186.94199 63.932813 188.57793 64.912695 188.90039 67.666016 C 188.71022 71.00638 186.96159 72.593099 183.6543 72.427734 L 183.00977 73.085938 C 182.89401 73.904492 182.89401 74.557096 183.00977 75.044922 C 183.03457 75.838672 183.03457 76.49668 183.00977 77.017578 C 183.11725 77.373112 183.16992 77.698438 183.16992 77.996094 C 190.27233 78.244141 194.20417 75.184896 194.96484 68.818359 C 194.47702 61.881315 190.7071 58.656706 183.6543 59.144531 z M 35.333984 59.232422 C 34.242578 59.678906 33.181966 59.786198 32.148438 59.554688 C 31.43737 60.637826 31.171615 61.749609 31.353516 62.890625 L 31.837891 64.626953 L 32.308594 64.789062 C 33.532292 64.499674 34.751367 64.445052 35.966797 64.626953 C 36.413281 62.063802 36.202148 60.265951 35.333984 59.232422 z M 38.1875 59.232422 L 37.220703 59.679688 L 36.972656 61.068359 C 37.228971 62.283789 37.369727 63.312891 37.394531 64.15625 L 37.232422 64.626953 C 37.232422 65.503385 37.177799 66.247526 37.070312 66.859375 C 36.971094 68.016927 36.921875 68.96875 36.921875 69.712891 L 36.761719 70.195312 L 36.761719 71.460938 C 36.869206 72.998828 36.761914 74.321745 36.439453 75.429688 L 36.921875 77.5 L 37.394531 77.810547 L 37.716797 77.972656 C 38.717253 77.550977 39.667122 77.443685 40.568359 77.650391 C 41.180208 77.575977 41.660547 77.364844 42.007812 77.017578 L 42.007812 76.0625 L 42.15625 75.429688 L 42.007812 75.119141 L 42.007812 74.636719 L 41.845703 74.314453 L 41.845703 73.841797 L 41.845703 73.371094 L 41.845703 71.298828 L 42.007812 70.990234 C 41.768034 69.766536 41.713411 68.703971 41.845703 67.802734 L 42.007812 67.330078 L 42.007812 65.744141 L 42.007812 65.271484 C 42.322005 63.014258 42.371224 61.158333 42.15625 59.703125 L 41.685547 59.392578 C 40.437044 59.599284 39.270638 59.546615 38.1875 59.232422 z M 87.759766 59.232422 C 86.833724 60.191536 86.420313 61.224089 86.519531 62.332031 L 86.990234 63.101562 L 87.611328 65.123047 L 88.070312 65.892578 L 88.378906 66.673828 L 88.689453 67.132812 L 88.851562 67.751953 C 89.182292 68.214974 89.38457 68.679557 89.458984 69.142578 L 89.769531 69.613281 L 90.078125 70.691406 C 90.673437 71.41901 91.086849 72.092773 91.318359 72.712891 L 91.480469 73.482422 L 91.480469 75.34375 L 91.628906 76.273438 C 92.017513 76.63724 92.277865 77.001432 92.410156 77.365234 C 92.897982 77.464453 93.311393 77.513672 93.650391 77.513672 L 94.109375 77.513672 L 94.580078 77.673828 C 95.431706 77.673828 96.156641 77.725 96.751953 77.824219 C 97.314193 77.022201 97.623763 76.248047 97.681641 75.503906 C 97.160742 74.751497 96.796549 74.077734 96.589844 73.482422 L 96.130859 72.712891 L 95.970703 71.623047 C 95.582096 70.903711 95.374414 70.233398 95.349609 69.613281 C 94.729492 68.554948 94.316081 67.575065 94.109375 66.673828 L 93.798828 66.203125 L 93.650391 65.582031 L 93.650391 65.123047 L 93.339844 64.503906 L 93.179688 64.03125 L 93.03125 63.412109 L 91.628906 59.542969 L 91.318359 59.380859 C 90.003711 59.645443 88.818099 59.596224 87.759766 59.232422 z M 122.68555 59.232422 C 122.09023 59.497005 121.4972 59.604297 120.91016 59.554688 C 120.34792 59.877148 119.81491 60.039062 119.31055 60.039062 C 115.66426 63.04043 114.27096 66.627279 115.13086 70.802734 C 116.25534 75.358529 118.98385 77.715951 123.31641 77.873047 L 124.28516 77.228516 C 124.26035 76.748958 124.15306 76.323242 123.96289 75.951172 C 123.91328 75.140885 123.80404 74.495182 123.63867 74.015625 L 123.00781 73.208984 C 120.6431 72.299479 119.78281 70.535091 120.42773 67.914062 C 120.70059 65.714714 121.82467 64.321419 123.80078 63.734375 C 124.20592 61.105078 123.83483 59.604492 122.68555 59.232422 z M 126.21875 59.232422 L 125.57422 59.554688 L 125.25195 63.572266 C 127.65801 64.53138 128.88939 66.19043 128.94727 68.546875 C 128.64961 70.911589 127.52552 72.519466 125.57422 73.371094 C 125.40885 73.958138 125.19427 74.441927 124.92969 74.822266 L 125.08984 75.628906 L 125.08984 76.099609 C 125.35443 76.694922 125.51634 77.23138 125.57422 77.710938 C 126.18607 77.710938 126.71908 77.658268 127.17383 77.550781 C 128.19082 76.690885 129.21302 76.157878 130.23828 75.951172 C 130.71784 75.595638 131.14355 75.381055 131.51562 75.306641 C 135.2694 69.651172 134.78906 64.614453 130.07617 60.199219 C 128.59616 59.636979 127.31016 59.315104 126.21875 59.232422 z M 138.26172 59.232422 C 137.78216 59.844271 137.46374 60.377279 137.30664 60.832031 C 137.46374 61.708464 137.51836 62.452604 137.46875 63.064453 L 137.46875 64.181641 C 137.36126 65.430143 137.36126 66.492708 137.46875 67.369141 L 137.30664 68 C 137.28184 69.091406 137.28184 69.997461 137.30664 70.716797 L 137.14648 71.039062 C 137.30358 71.783203 137.35625 72.420052 137.30664 72.949219 C 137.11647 74.759961 137.11647 76.248242 137.30664 77.414062 C 137.86061 77.653841 138.34095 77.815755 138.74609 77.898438 C 139.93672 77.526367 140.99928 77.364453 141.93359 77.414062 C 142.35527 77.306576 142.61908 77.042773 142.72656 76.621094 L 142.88867 75.826172 C 142.73158 75.214323 142.62428 74.628646 142.56641 74.066406 L 142.4043 73.433594 C 142.53659 72.581966 142.59121 71.837826 142.56641 71.201172 L 142.56641 70.716797 L 142.4043 68.646484 L 142.56641 68.322266 C 142.45892 67.60293 142.45892 66.968034 142.56641 66.414062 L 142.56641 65.136719 L 142.56641 64.652344 L 142.56641 62.580078 C 142.80618 61.728451 142.91348 60.98431 142.88867 60.347656 C 142.6737 60.000391 142.51178 59.681966 142.4043 59.392578 L 141.93359 59.232422 C 140.51973 59.389518 139.29525 59.389518 138.26172 59.232422 z M 144.95898 59.232422 C 143.36322 60.588411 143.31055 62.129362 144.79883 63.857422 C 146.18789 63.907031 147.30313 64.068945 148.14648 64.341797 C 148.04727 66.33444 147.03932 67.127799 145.12109 66.722656 C 145.01361 66.962435 144.85169 67.124349 144.63672 67.207031 L 144.48828 68.322266 L 144.48828 68.806641 C 144.19063 69.575586 144.08333 70.374349 144.16602 71.201172 C 144.53809 71.779948 144.90918 72.254883 145.28125 72.626953 C 145.8931 73.29668 146.31882 73.936979 146.55859 74.548828 C 147.59212 75.400456 148.33626 76.355729 148.79102 77.414062 C 149.61784 77.736523 150.46927 77.791146 151.3457 77.576172 C 152.5694 78.188021 153.5793 78.026107 154.37305 77.091797 C 154.18288 76.405534 153.97174 75.823307 153.74023 75.34375 C 153.31029 74.946875 152.98841 74.573828 152.77344 74.226562 C 151.34303 73.242643 150.38776 72.018164 149.9082 70.554688 C 150.52005 70.157813 151.1569 69.948633 151.81836 69.923828 C 153.38932 67.716211 153.975 65.429167 153.57812 63.064453 L 153.25586 62.742188 C 152.64401 61.568099 152.00716 60.662044 151.3457 60.025391 L 149.42383 59.554688 L 148.95312 59.392578 L 148.46875 59.554688 L 148.14648 59.392578 L 144.95898 59.232422 z M 207.72656 59.232422 L 206.59961 59.716797 L 206.4375 60.039062 C 206.49538 60.435937 206.49538 60.807031 206.4375 61.154297 L 206.4375 63.400391 C 207.48757 63.855143 208.13327 64.498893 208.37305 65.333984 L 209.16602 65.65625 C 210.05072 65.51569 210.85293 65.51569 211.57227 65.65625 C 213.77161 62.630078 212.48906 60.489193 207.72656 59.232422 z M 237.24414 59.232422 L 236.11719 59.716797 L 235.95508 60.039062 C 236.01296 60.435937 236.01296 60.807031 235.95508 61.154297 L 235.95508 63.400391 C 237.00514 63.855143 237.65085 64.498893 237.89062 65.333984 L 238.68359 65.65625 C 239.56829 65.51569 240.37051 65.51569 241.08984 65.65625 C 243.28919 62.630078 242.00664 60.489193 237.24414 59.232422 z M 249.15039 59.232422 C 248.05898 59.678906 246.99837 59.786198 245.96484 59.554688 C 245.25378 60.637826 244.98802 61.749609 245.16992 62.890625 L 245.6543 64.626953 L 246.125 64.789062 C 247.3487 64.499674 248.56777 64.445052 249.7832 64.626953 C 250.22969 62.063802 250.01855 60.265951 249.15039 59.232422 z M 252.00391 59.232422 L 251.03711 59.679688 L 250.78906 61.068359 C 251.04538 62.283789 251.18613 63.312891 251.21094 64.15625 L 251.04883 64.626953 C 251.04883 65.503385 250.99421 66.247526 250.88672 66.859375 C 250.7875 68.016927 250.73828 68.96875 250.73828 69.712891 L 250.57812 70.195312 L 250.57812 71.460938 C 250.68561 72.998828 250.57832 74.321745 250.25586 75.429688 L 250.73828 77.5 L 251.21094 77.810547 L 251.5332 77.972656 C 252.53366 77.550977 253.48353 77.443685 254.38477 77.650391 C 254.99661 77.575977 255.47695 77.364844 255.82422 77.017578 L 255.82422 76.0625 L 255.97266 75.429688 L 255.82422 75.119141 L 255.82422 74.636719 L 255.66211 74.314453 L 255.66211 73.841797 L 255.66211 73.371094 L 255.66211 71.298828 L 255.82422 70.990234 C 255.58444 69.766536 255.52982 68.703971 255.66211 67.802734 L 255.82422 67.330078 L 255.82422 65.744141 L 255.82422 65.271484 C 256.13841 63.014258 256.18763 61.158333 255.97266 59.703125 L 255.50195 59.392578 C 254.25345 59.599284 253.08704 59.546615 252.00391 59.232422 z M 290.32617 59.232422 C 289.23477 59.678906 288.17415 59.786198 287.14062 59.554688 C 286.42956 60.637826 286.1638 61.749609 286.3457 62.890625 L 286.83008 64.626953 L 287.30078 64.789062 C 288.52448 64.499674 289.74355 64.445052 290.95898 64.626953 C 291.40547 62.063802 291.19434 60.265951 290.32617 59.232422 z M 293.17969 59.232422 L 292.21289 59.679688 L 291.96484 61.068359 C 292.22116 62.283789 292.36191 63.312891 292.38672 64.15625 L 292.22461 64.626953 C 292.22461 65.503385 292.16999 66.247526 292.0625 66.859375 C 291.96328 68.016927 291.91406 68.96875 291.91406 69.712891 L 291.75391 70.195312 L 291.75391 71.460938 C 291.86139 72.998828 291.7541 74.321745 291.43164 75.429688 L 291.91406 77.5 L 292.38672 77.810547 L 292.70898 77.972656 C 293.70944 77.550977 294.65931 77.443685 295.56055 77.650391 C 296.1724 77.575977 296.65273 77.364844 297 77.017578 L 297 76.0625 L 297.14844 75.429688 L 297 75.119141 L 297 74.636719 L 296.83789 74.314453 L 296.83789 73.841797 L 296.83789 73.371094 L 296.83789 71.298828 L 297 70.990234 C 296.76022 69.766536 296.7056 68.703971 296.83789 67.802734 L 297 67.330078 L 297 65.744141 L 297 65.271484 C 297.31419 63.014258 297.36341 61.158333 297.14844 59.703125 L 296.67773 59.392578 C 295.42923 59.599284 294.26283 59.546615 293.17969 59.232422 z M 315.72656 59.232422 L 314.59766 59.716797 L 314.4375 60.039062 C 314.49538 60.435937 314.49538 60.807031 314.4375 61.154297 L 314.4375 63.400391 C 315.48757 63.855143 316.13132 64.498893 316.37109 65.333984 L 317.16602 65.65625 C 318.05072 65.51569 318.85293 65.51569 319.57227 65.65625 C 321.77161 62.630078 320.48906 60.489193 315.72656 59.232422 z M 96.279297 59.380859 C 95.37806 60.571484 94.964648 61.811719 95.039062 63.101562 L 95.349609 63.412109 L 95.511719 63.882812 C 95.949935 64.577344 96.204883 65.247656 96.279297 65.892578 L 96.589844 66.052734 C 97.466276 68.061914 98.036198 69.766732 98.300781 71.164062 L 98.611328 72.404297 C 99.330664 73.487435 99.691406 74.569206 99.691406 75.652344 C 100.20404 76.222852 100.56283 76.794727 100.76953 77.365234 C 102.83659 77.695964 104.64674 77.641341 106.20117 77.203125 C 106.30039 76.715299 106.35156 76.301888 106.35156 75.962891 C 106.09525 75.160872 105.83835 74.541732 105.58203 74.103516 C 105.14382 73.359375 104.83424 72.689062 104.65234 72.09375 L 104.49023 71.472656 L 104.03125 70.853516 C 103.79974 70.125911 103.64323 69.504818 103.56055 68.992188 C 103.22982 68.578776 102.97292 68.165365 102.79102 67.751953 L 102.63086 67.292969 L 102.63086 66.822266 L 102.32031 66.363281 L 102.32031 65.892578 C 101.67539 64.701953 101.21276 63.667448 100.93164 62.791016 C 101.00605 62.195703 101.00605 61.680404 100.93164 61.242188 C 100.51823 60.803971 100.26133 60.339388 100.16211 59.851562 L 99.691406 59.691406 C 98.426367 59.798893 97.288021 59.695052 96.279297 59.380859 z M 44.066406 59.392578 C 43.851432 59.681966 43.640299 59.893099 43.433594 60.025391 C 43.433594 60.579362 43.488216 61.001628 43.595703 61.291016 C 43.430339 62.29974 43.375716 63.147721 43.433594 63.833984 L 43.744141 64.626953 C 44.777669 64.469857 45.67832 64.524479 46.447266 64.789062 C 47.852865 63.391732 48.171289 61.695768 47.402344 59.703125 C 46.790495 59.603906 46.208268 59.603906 45.654297 59.703125 L 45.181641 59.703125 L 44.066406 59.392578 z M 204.19336 59.392578 C 204.03626 59.500065 203.8778 59.554687 203.7207 59.554688 L 202.43164 59.554688 C 201.78672 59.819271 201.19909 59.926562 200.66992 59.876953 C 197.24688 63.167708 197.3015 66.107357 200.83203 68.695312 L 201.31641 69.017578 L 201.78711 69.501953 L 202.43164 69.662109 L 202.91602 70.146484 C 203.10618 70.253971 203.21348 70.361263 203.23828 70.46875 L 203.56055 70.630859 C 205.32168 71.292318 206.70957 72.092578 207.72656 73.035156 C 206.09772 74.60612 205.83047 76.103255 206.92188 77.525391 C 208.34401 77.872656 209.4681 77.550781 210.29492 76.558594 C 211.87415 75.682161 212.67637 74.399609 212.70117 72.712891 C 212.70117 71.695898 212.59388 70.841016 212.37891 70.146484 C 211.81667 69.584245 211.39095 69.045833 211.10156 68.533203 C 210.43184 68.400911 209.89342 68.191732 209.48828 67.902344 C 209.09141 67.662565 208.77298 67.393359 208.5332 67.095703 L 207.88867 66.933594 L 207.24414 66.773438 L 206.28906 66.128906 C 205.13151 65.97181 204.16738 65.706055 203.39844 65.333984 L 203.39844 64.367188 C 204.7875 62.787956 205.05326 61.128906 204.19336 59.392578 z M 233.71094 59.392578 C 233.55384 59.500065 233.39538 59.554687 233.23828 59.554688 L 231.94922 59.554688 C 231.3043 59.819271 230.71667 59.926562 230.1875 59.876953 C 226.76445 63.167708 226.81908 66.107357 230.34961 68.695312 L 230.83398 69.017578 L 231.30469 69.501953 L 231.94922 69.662109 L 232.43359 70.146484 C 232.62376 70.253971 232.73105 70.361263 232.75586 70.46875 L 233.07812 70.630859 C 234.83926 71.292318 236.22715 72.092578 237.24414 73.035156 C 235.6153 74.60612 235.34805 76.103255 236.43945 77.525391 C 237.86159 77.872656 238.98568 77.550781 239.8125 76.558594 C 241.39173 75.682161 242.19395 74.399609 242.21875 72.712891 C 242.21875 71.695898 242.11146 70.841016 241.89648 70.146484 C 241.33424 69.584245 240.90853 69.045833 240.61914 68.533203 C 239.94941 68.400911 239.411 68.191732 239.00586 67.902344 C 238.60898 67.662565 238.29056 67.393359 238.05078 67.095703 L 237.40625 66.933594 L 236.76172 66.773438 L 235.80664 66.128906 C 234.64909 65.97181 233.68496 65.706055 232.91602 65.333984 L 232.91602 64.367188 C 234.30508 62.787956 234.57083 61.128906 233.71094 59.392578 z M 257.88281 59.392578 C 257.66784 59.681966 257.45671 59.893099 257.25 60.025391 C 257.25 60.579362 257.30462 61.001628 257.41211 61.291016 C 257.24674 62.29974 257.19212 63.147721 257.25 63.833984 L 257.56055 64.626953 C 258.59408 64.469857 259.49473 64.524479 260.26367 64.789062 C 261.66927 63.391732 261.9877 61.695768 261.21875 59.703125 C 260.6069 59.603906 260.02467 59.603906 259.4707 59.703125 L 258.99805 59.703125 L 257.88281 59.392578 z M 299.05859 59.392578 C 298.84362 59.681966 298.63249 59.893099 298.42578 60.025391 C 298.42578 60.579362 298.4804 61.001628 298.58789 61.291016 C 298.42253 62.29974 298.3679 63.147721 298.42578 63.833984 L 298.73633 64.626953 C 299.76986 64.469857 300.67051 64.524479 301.43945 64.789062 C 302.84505 63.391732 303.16348 61.695768 302.39453 59.703125 C 301.78268 59.603906 301.20046 59.603906 300.64648 59.703125 L 300.17383 59.703125 L 299.05859 59.392578 z M 312.19141 59.392578 C 312.03431 59.500065 311.8778 59.554687 311.7207 59.554688 L 310.43164 59.554688 C 309.78672 59.819271 309.19909 59.926562 308.66992 59.876953 C 305.24688 63.167708 305.3015 66.107357 308.83203 68.695312 L 309.31445 69.017578 L 309.78711 69.501953 L 310.43164 69.662109 L 310.91406 70.146484 C 311.10423 70.253971 311.21348 70.361263 311.23828 70.46875 L 311.56055 70.630859 C 313.32168 71.292318 314.70957 72.092578 315.72656 73.035156 C 314.09772 74.60612 313.82852 76.103255 314.91992 77.525391 C 316.34206 77.872656 317.4681 77.550781 318.29492 76.558594 C 319.87415 75.682161 320.67637 74.399609 320.70117 72.712891 C 320.70117 71.695898 320.59193 70.841016 320.37695 70.146484 C 319.81471 69.584245 319.389 69.045833 319.09961 68.533203 C 318.42988 68.400911 317.89342 68.191732 317.48828 67.902344 C 317.09141 67.662565 316.77298 67.393359 316.5332 67.095703 L 315.88867 66.933594 L 315.24414 66.773438 L 314.28906 66.128906 C 313.13151 65.97181 312.16738 65.706055 311.39844 65.333984 L 311.39844 64.367188 C 312.7875 62.787956 313.0513 61.128906 312.19141 59.392578 z M 54.583984 59.417969 L 54.111328 59.740234 C 53.011654 59.583138 52.074089 59.632357 51.296875 59.888672 C 51.139779 60.624544 50.928646 61.19987 50.664062 61.613281 L 50.826172 62.556641 L 50.664062 63.027344 C 50.821159 63.415951 50.875781 63.832813 50.826172 64.279297 L 50.974609 71.808594 C 50.660417 73.817773 50.660417 75.541797 50.974609 76.980469 C 53.116081 77.898242 54.892773 77.637891 56.306641 76.199219 C 56.331445 75.157422 56.229557 74.267122 55.998047 73.53125 L 55.998047 72.75 L 55.998047 72.279297 C 56.047656 71.311914 55.993034 70.476237 55.835938 69.773438 L 55.835938 68.050781 L 55.835938 67.578125 L 55.835938 67.107422 L 55.835938 66.636719 L 55.835938 65.693359 L 55.835938 65.222656 L 55.835938 64.589844 C 55.786328 63.523242 55.840951 62.638346 55.998047 61.935547 L 55.998047 60.671875 L 55.835938 59.580078 L 54.583984 59.417969 z M 72.292969 59.417969 L 71.822266 59.740234 C 70.722591 59.583138 69.785026 59.632357 69.007812 59.888672 C 68.850716 60.624544 68.639583 61.19987 68.375 61.613281 L 68.535156 62.556641 L 68.375 63.027344 C 68.532096 63.415951 68.584766 63.832813 68.535156 64.279297 L 68.685547 71.808594 C 68.371354 73.817773 68.371354 75.541797 68.685547 76.980469 C 70.827018 77.898242 72.603711 77.637891 74.017578 76.199219 C 74.042383 75.157422 73.938542 74.267122 73.707031 73.53125 L 73.707031 72.75 L 73.707031 72.279297 C 73.756641 71.311914 73.703971 70.476237 73.546875 69.773438 L 73.546875 68.050781 L 73.546875 67.578125 L 73.546875 67.107422 L 73.546875 66.636719 L 73.546875 65.693359 L 73.546875 65.222656 L 73.546875 64.589844 C 73.497266 63.523242 73.549935 62.638346 73.707031 61.935547 L 73.707031 60.671875 L 73.546875 59.580078 L 72.292969 59.417969 z M 106.51172 59.542969 L 106.04102 59.851562 L 105.73047 60.310547 C 105.60645 61.36888 105.40072 62.250326 105.11133 62.953125 C 104.9873 63.804753 104.7304 64.576953 104.3418 65.271484 L 104.3418 65.744141 L 104.65234 66.203125 L 104.96094 67.292969 C 105.21725 67.70638 105.37031 68.116341 105.41992 68.521484 L 105.73047 68.832031 L 105.73047 69.302734 C 106.43327 70.336263 106.9013 71.370768 107.13281 72.404297 L 107.75195 72.863281 L 108.52148 70.072266 L 108.68164 69.451172 L 108.99219 68.832031 L 109.14062 68.0625 L 109.45117 67.443359 L 109.61328 66.673828 L 109.76172 66.203125 C 109.94362 65.66569 110.04746 65.201107 110.07227 64.8125 C 110.9487 63.282878 111.464 61.836914 111.62109 60.472656 L 110.85352 59.542969 C 109.24948 59.799284 107.80156 59.799284 106.51172 59.542969 z M 270.25977 62.482422 C 269.86289 63.210026 269.48639 63.795703 269.13086 64.242188 L 268.49805 66.337891 L 268.01562 66.822266 L 267.85352 67.617188 L 267.53125 68.099609 L 267.20898 68.744141 L 267.04688 69.228516 L 266.72461 69.712891 L 265.44727 73.234375 C 264.75273 74.358854 264.32357 75.430273 264.1582 76.447266 C 264.32357 76.744922 264.43086 77.012174 264.48047 77.251953 L 264.80273 77.414062 L 265.28711 77.414062 C 266.73405 77.47194 267.96198 77.633854 268.9707 77.898438 L 269.61523 77.576172 C 269.92943 76.484766 270.30592 75.62793 270.74414 75.007812 C 272.24069 74.867253 273.63398 75.029167 274.92383 75.492188 C 275.28763 75.053971 275.60605 74.730143 275.87891 74.523438 L 275.87891 74.201172 C 275.70527 73.870443 275.59798 73.548568 275.55664 73.234375 C 275.11016 72.680404 274.8444 72.092773 274.76172 71.472656 L 274.11719 70.667969 L 273.79492 70.828125 C 273.03424 70.580078 272.28665 70.527409 271.55078 70.667969 L 271.71094 70.035156 C 272.19876 68.993359 272.51719 68.078451 272.66602 67.292969 L 271.71094 65.855469 L 271.71094 65.210938 C 271.19004 64.367578 270.92083 63.565365 270.9043 62.804688 L 270.25977 62.482422 z M 58.193359 66.003906 C 56.490104 68.930859 56.959635 70.447201 59.605469 70.554688 C 62.424935 71.025977 63.207943 69.616927 61.951172 66.326172 C 61.53776 66.169076 61.118945 66.116406 60.697266 66.166016 C 59.729883 66.24043 58.896159 66.185807 58.193359 66.003906 z M 75.902344 66.003906 C 74.199089 68.930859 74.670573 70.447201 77.316406 70.554688 C 80.135872 71.025977 80.916927 69.616927 79.660156 66.326172 C 79.246745 66.169076 78.829883 66.116406 78.408203 66.166016 C 77.44082 66.24043 76.605143 66.185807 75.902344 66.003906 z M 222.89648 67.292969 C 222.74766 67.392187 222.59805 67.443359 222.44922 67.443359 L 221.99023 67.443359 C 221.05592 67.62526 220.25026 67.62526 219.57227 67.443359 C 218.45605 67.724479 217.44271 67.777148 216.5332 67.603516 C 215.72292 68.430339 215.42025 69.389063 215.62695 70.480469 L 216.38477 71.697266 L 216.84375 71.697266 L 217.14062 71.535156 L 217.74805 71.535156 L 218.80273 71.386719 L 222.13867 71.238281 L 222.59766 71.697266 L 223.50391 71.535156 C 224.31419 70.146094 224.36341 68.782812 223.65234 67.443359 L 222.89648 67.292969 z M 198.89648 71.261719 L 197.61914 73.035156 C 198.74362 76.615299 200.98835 78.219727 204.35352 77.847656 C 205.71777 76.351107 205.34668 74.801302 203.23828 73.197266 L 203.07617 72.068359 L 202.59375 71.585938 C 201.14681 71.718229 199.91348 71.608984 198.89648 71.261719 z M 228.41406 71.261719 L 227.13672 73.035156 C 228.2612 76.615299 230.50592 78.219727 233.87109 77.847656 C 235.23535 76.351107 234.86426 74.801302 232.75586 73.197266 L 232.59375 72.068359 L 232.11133 71.585938 C 230.66439 71.718229 229.43105 71.608984 228.41406 71.261719 z M 306.89648 71.261719 L 305.61914 73.035156 C 306.74362 76.615299 308.98835 78.219727 312.35352 77.847656 C 313.71777 76.351107 313.34668 74.801302 311.23828 73.197266 L 311.07617 72.068359 L 310.5918 71.585938 C 309.14486 71.718229 307.91348 71.608984 306.89648 71.261719 z M 64.46875 72.119141 L 63.996094 72.441406 L 62.732422 72.441406 L 62.273438 72.589844 L 61.640625 72.589844 L 61.169922 72.589844 L 58.03125 72.589844 C 57.932031 72.771745 57.82819 72.875586 57.720703 72.900391 C 56.910417 74.810352 57.06888 76.483203 58.193359 77.921875 L 58.664062 77.761719 L 59.283203 77.761719 L 59.755859 77.613281 L 60.226562 77.451172 L 60.859375 77.613281 L 61.330078 77.451172 L 61.800781 77.451172 L 64.306641 77.291016 C 65.505534 77.009896 65.977018 76.226888 65.720703 74.945312 C 66.034896 73.481836 65.618034 72.54082 64.46875 72.119141 z M 82.177734 72.119141 L 81.707031 72.441406 L 80.441406 72.441406 L 79.982422 72.589844 L 79.351562 72.589844 L 78.878906 72.589844 L 75.742188 72.589844 C 75.642969 72.771745 75.539128 72.875586 75.431641 72.900391 C 74.621354 74.810352 74.777865 76.483203 75.902344 77.921875 L 76.375 77.761719 L 76.994141 77.761719 L 77.464844 77.613281 L 77.9375 77.451172 L 78.570312 77.613281 L 79.041016 77.451172 L 79.511719 77.451172 L 82.017578 77.291016 C 83.216471 77.009896 83.687956 76.226888 83.431641 74.945312 C 83.745833 73.481836 83.327018 72.54082 82.177734 72.119141 z M 171.75977 72.353516 C 171.60267 72.461003 171.44271 72.515625 171.27734 72.515625 C 170.30996 72.705794 169.39505 72.705794 168.53516 72.515625 L 167.89062 72.515625 C 166.75788 72.598307 165.84147 72.598307 165.13867 72.515625 C 163.65866 73.805469 163.28216 75.422201 164.00977 77.365234 C 164.3901 77.7125 164.7666 77.872461 165.13867 77.847656 L 166.42773 77.6875 L 167.07227 77.6875 L 167.7168 77.6875 L 168.375 77.6875 L 168.85938 77.6875 L 169.3418 77.525391 L 169.82617 77.525391 C 170.81836 77.550195 171.67865 77.497526 172.40625 77.365234 C 173.40671 74.669792 173.19017 72.998437 171.75977 72.353516 z "
       style="font-style:normal;font-variant:normal;font-weight:normal;font-stretch:normal;font-size:10.58333302px;line-height:1.25;font-family:'Know Your Product';-inkscape-font-specification:'Know Your Product';letter-spacing:0px;word-spacing:0px;fill:#be6e19;fill-opacity:1;stroke:#6e3700;stroke-width:0.5291667;stroke-miterlimit:4;stroke-dasharray:none;stroke-opacity:1"
       id="text4607"
       d="m 64.035156,57.683594 c -0.64175,0.176616 -2.562445,0.52408 -1.933594,0.308594 h -0.15039 -0.472656 a 1.4249673,1.4249673 0 0 0 -0.660157,0.162109 h -0.121093 -2.033204 a 1.4249673,1.4249673 0 0 0 -1.005859,0.416015 c -0.187755,0.186844 -0.295693,0.407154 -0.458984,0.605469 a 1.4249673,1.4249673 0 0 0 -1.179688,-1.007812 l -1.251953,-0.16211 a 1.4249673,1.4249673 0 0 0 -0.986328,0.234375 l -0.195312,0.132813 c -0.958487,-0.06608 -1.905305,-0.111307 -2.734376,0.162109 a 1.4249673,1.4249673 0 0 0 -0.947265,1.056641 c -0.134334,0.629249 -0.312888,1.056148 -0.439453,1.253906 a 1.4249673,1.4249673 0 0 0 -0.205078,1.009766 l 0.09961,0.582031 -0.04297,0.125 a 1.4249673,1.4249673 0 0 0 0.02734,0.998047 c 0.06741,0.166753 0.09259,0.324893 0.06641,0.560547 a 1.4249673,1.4249673 0 0 0 -0.0078,0.185547 l 0.146484,7.478515 c -0.302387,2.047409 -0.3197,3.884072 0.0332,5.5 a 1.4249673,1.4249673 0 0 0 0.832031,1.00586 c 2.202619,0.943978 4.486055,0.705312 6.21875,-0.589844 0.175878,0.357977 0.183955,0.773267 0.4375,1.097656 a 1.4249673,1.4249673 0 0 0 1.582032,0.472656 l 0.248047,-0.08398 h 0.382812 a 1.4249673,1.4249673 0 0 0 0.427735,-0.06641 l 0.472656,-0.148438 a 1.4249673,1.4249673 0 0 0 0.03711,-0.01172 l 0.06641,-0.02344 0.21875,0.05664 a 1.4249673,1.4249673 0 0 0 0.81836,-0.0332 l 0.24414,-0.08398 h 0.232422 a 1.4249673,1.4249673 0 0 0 0.0918,-0.0039 l 2.50586,-0.160156 a 1.4249673,1.4249673 0 0 0 0.234374,-0.03516 c 0.845288,-0.198205 1.674192,-0.665537 2.146485,-1.449218 0.223636,-0.371082 0.336001,-0.774396 0.388672,-1.185547 0.04446,0.411963 0.04032,0.854444 0.125,1.242187 a 1.4249673,1.4249673 0 0 0 0.832031,1.00586 c 2.202225,0.94381 4.486154,0.706633 6.21875,-0.587891 0.175549,0.357096 0.182542,0.772005 0.435547,1.095703 a 1.4249673,1.4249673 0 0 0 1.580078,0.472656 l 0.25,-0.08398 h 0.384766 a 1.4249673,1.4249673 0 0 0 0.427734,-0.06641 l 0.470703,-0.148438 a 1.4249673,1.4249673 0 0 0 0.03516,-0.01172 l 0.06836,-0.02344 0.220703,0.05664 a 1.4249673,1.4249673 0 0 0 0.818359,-0.0332 l 0.244141,-0.08398 h 0.232422 a 1.4249673,1.4249673 0 0 0 0.0918,-0.0039 l 2.505859,-0.160156 a 1.4249673,1.4249673 0 0 0 0.234375,-0.03516 c 0.845287,-0.198205 1.674192,-0.665537 2.146484,-1.449218 0.472293,-0.783681 0.509941,-1.702247 0.337891,-2.5625 l -0.0039,0.578125 C 85.021743,74.32409 85.029968,73.404161 84.65625,72.5625 84.282532,71.720839 83.511829,71.090867 82.667969,70.78125 a 1.4249673,1.4249673 0 0 0 -1.294922,0.162109 l -0.107422,0.07227 h -0.634766 c 0.198396,-0.187923 0.500585,-0.236053 0.632813,-0.474609 0.775606,-1.399297 0.416182,-2.922056 -0.271484,-4.722657 a 1.4249673,1.4249673 0 0 0 -0.05078,-0.113281 h 1.386719 a 1.4249673,1.4249673 0 0 0 0.998047,-0.408203 l 0.630859,-0.619141 a 1.4249673,1.4249673 0 0 0 0.375,-0.636718 c 0.427739,-1.539859 0.606495,-2.820151 0.277344,-4.017578 -0.329151,-1.197428 -1.493256,-2.173267 -2.722656,-2.330079 a 1.4249673,1.4249673 0 0 0 -0.806641,0.134766 c -0.173191,0.0849 -0.210743,0.07863 -0.3125,0.05469 a 1.4249673,1.4249673 0 0 0 -0.957031,0.109376 h -0.150391 -0.470703 a 1.4249673,1.4249673 0 0 0 -0.660156,0.162109 H 78.408203 76.375 a 1.4249673,1.4249673 0 0 0 -1.005859,0.416015 c -0.187755,0.186844 -0.295693,0.407154 -0.458985,0.605469 a 1.4249673,1.4249673 0 0 0 -1.179687,-1.007812 l -1.253907,-0.16211 a 1.4249673,1.4249673 0 0 0 -0.988281,0.236329 l -0.191406,0.130859 C 70.338388,58.306966 69.391571,58.26174 68.5625,58.535156 a 1.4249673,1.4249673 0 0 0 -0.947266,1.056641 c -0.134334,0.629249 -0.312887,1.056147 -0.439453,1.253906 a 1.4249673,1.4249673 0 0 0 -0.179687,0.417969 c -0.0075,-0.419593 0.01118,-0.847154 -0.09766,-1.242188 -0.329927,-1.197447 -1.493327,-2.171322 -2.722657,-2.328125 a 1.4249673,1.4249673 0 0 0 -0.140625,-0.0098 z m 96.955074,0 c -0.72884,0.05119 -0.97419,0.302683 -1.05273,0.417968 -0.93292,0.0029 -1.86462,0.0191 -2.69531,0.306641 a 1.4249673,1.4249673 0 0 0 -0.92969,1.064453 l -0.16211,0.804688 a 1.4249673,1.4249673 0 0 0 -0.01,0.04883 l -0.16015,0.96875 a 1.4249673,1.4249673 0 0 0 0.008,0.505859 l 0.13281,0.683594 v 0.759766 l -0.0859,0.263671 a 1.4249673,1.4249673 0 0 0 -0.041,0.746094 c 0.0937,0.439439 0.0872,0.804871 0.006,1.150391 a 1.4249673,1.4249673 0 0 0 0.0254,0.748047 c 0.0724,0.233842 0.0957,0.4173 0.0957,0.546875 v 2.269531 a 1.4249673,1.4249673 0 0 0 0.0742,0.453125 l 0.0117,0.0293 -0.0117,0.03125 a 1.4249673,1.4249673 0 0 0 -0.0234,0.824219 l 0.10156,-0.205079 a 1.4249673,1.4249673 0 0 0 -0.0937,0.240235 1.4249673,1.4249673 0 0 0 -0.0586,0.400391 v 2.472656 l 0.0957,-0.0957 a 1.4249673,1.4249673 0 0 0 -0.41797,1.007812 c 0,1.319797 0.17798,2.514325 0.57617,3.576172 a 1.4249673,1.4249673 0 0 0 0.59961,0.720703 l 0.80664,0.484375 a 1.4249673,1.4249673 0 0 0 0.9375,0.189453 l 0.9668,-0.138672 c 0.4274,0.0058 0.74865,0.07311 0.98242,0.181641 a 1.4249673,1.4249673 0 0 0 0.87695,0.105469 l 0.80664,-0.160156 a 1.4249673,1.4249673 0 0 0 0.8711,-0.556641 c 0.54863,0.448724 1.24406,0.791412 2.01172,0.740234 a 1.4249673,1.4249673 0 0 0 0.0801,-0.0078 l 1.20117,-0.148438 h 0.55665 0.64453 0.6582 0.48438 a 1.4249673,1.4249673 0 0 0 0.45312,-0.07422 l 0.26172,-0.08789 h 0.25195 l -0.0351,-0.002 c 1.06313,0.02658 2.01254,-0.0259 2.86914,-0.181641 a 1.4249673,1.4249673 0 0 0 1.08203,-0.90625 c 0.54533,-1.469228 0.82216,-2.743988 0.66601,-3.953125 -0.15614,-1.209137 -0.95142,-2.352567 -2.0625,-2.853515 a 1.4249673,1.4249673 0 0 0 -1.27343,0.05273 1.4249673,1.4249673 0 0 0 -0.0703,0.0098 c -0.80054,0.157371 -1.50637,0.151967 -2.1582,0.0078 a 1.4249673,1.4249673 0 0 0 -0.30859,-0.03516 h -0.64454 a 1.4249673,1.4249673 0 0 0 -0.10351,0.0039 c -1.07709,0.07862 -1.92236,0.07175 -2.48242,0.0059 a 1.4249673,1.4249673 0 0 0 -1.10157,0.341797 c -0.0796,0.06939 -0.12243,0.161725 -0.19726,0.234375 -0.0133,-0.583792 -0.059,-1.195281 0.0781,-1.652343 a 1.4249673,1.4249673 0 0 0 -0.0898,-1.044922 l -0.008,-0.01563 0.0195,-0.03906 a 1.4249673,1.4249673 0 0 0 -0.002,-1.228516 c 0.001,-0.419866 0.0188,-0.820332 0.0977,-1.140624 a 1.4249673,1.4249673 0 0 0 -0.0254,-0.773438 c -0.1376,-0.430743 -0.14841,-0.733746 -0.11328,-0.9375 a 1.4249673,1.4249673 0 0 0 0.0215,-0.242188 v -1.253906 l 0.1582,-3.201172 a 1.4249673,1.4249673 0 0 0 -0.51563,-1.167968 c -0.73569,-0.608173 -1.50533,-1.057781 -2.35547,-1.257813 a 1.4249673,1.4249673 0 0 0 -0.28125,-0.03711 z m 111.28516,0 c -2.08545,0.76381 -2.62812,2.737382 -2.29297,3.402344 a 1.4249673,1.4249673 0 0 0 -0.97265,0.714843 c -0.3694,0.677226 -0.7115,1.199731 -0.99415,1.554688 a 1.4249673,1.4249673 0 0 0 -0.24804,0.474609 l -0.53125,1.753906 -0.23047,0.232422 a 1.4249673,1.4249673 0 0 0 -0.38672,0.720703 l -0.10547,0.521485 -0.16797,0.25 a 1.4249673,1.4249673 0 0 0 -0.0879,0.154297 l -0.32226,0.644531 a 1.4249673,1.4249673 0 0 0 -0.0781,0.183594 l -0.10156,0.30664 -0.2168,0.326172 a 1.4249673,1.4249673 0 0 0 -0.15429,0.302734 l -1.27735,3.521485 0.12696,-0.261719 c -0.76929,1.245488 -1.27982,2.486453 -1.48243,3.732422 a 1.4249673,1.4249673 0 0 0 0.16016,0.919922 c 0.11659,0.209857 0.16424,0.355994 0.17383,0.402344 a 1.4249673,1.4249673 0 0 0 0.7539,0.984375 l 0.32227,0.162109 a 1.4249673,1.4249673 0 0 0 0.64062,0.152344 h 0.44336 c 1.36453,0.05559 2.4951,0.209776 3.36329,0.4375 a 1.4249673,1.4249673 0 0 0 0.99804,-0.105469 l 0.64453,-0.322266 a 1.4249673,1.4249673 0 0 0 0.73243,-0.878906 c 0.19475,-0.676496 0.4158,-1.043352 0.63085,-1.460937 0.99616,-0.01142 1.96996,0.01616 2.82813,0.324218 a 1.4249673,1.4249673 0 0 0 1.57617,-0.43164 c 0.0358,-0.04308 0.0458,-0.04222 0.0801,-0.08203 0.0624,0.25409 0.26813,0.534369 0.29883,0.783204 a 1.4249673,1.4249673 0 0 0 0.82422,1.123046 c 1.7899,0.815203 3.27203,1.257929 4.69922,1.056641 1.42718,-0.201288 2.62692,-1.447485 2.9082,-2.871094 A 1.4249673,1.4249673 0 0 0 284.70508,75.5 l -0.23633,-0.474609 -0.125,-0.621094 a 1.4249673,1.4249673 0 0 0 -0.29687,-0.625 c -1.10698,-1.344186 -1.66426,-2.73609 -1.76172,-4.316406 a 1.4249673,1.4249673 0 0 0 -0.32422,-0.820313 c -0.26816,-0.324285 -0.44052,-0.617789 -0.56055,-0.888672 L 281.11914,66.625 a 1.4249673,1.4249673 0 0 0 -0.40039,-0.685547 l -0.0664,-0.0625 -0.0469,-0.146484 a 1.4249673,1.4249673 0 0 0 -0.002,-0.0059 l -0.16211,-0.484375 a 1.4249673,1.4249673 0 0 0 -0.0762,-0.18164 l -0.11132,-0.22461 -0.20899,-0.652343 v -0.261719 a 1.4249673,1.4249673 0 0 0 -0.25586,-0.8125 1.4249673,1.4249673 0 0 0 -0.0273,-0.06836 c -0.12808,-0.292758 -0.189,-0.532066 -0.21094,-0.720703 a 1.4249673,1.4249673 0 0 0 -0.25781,-0.666015 c -0.38557,-0.538573 -0.5292,-0.98835 -0.53906,-1.447266 a 1.4249673,1.4249673 0 0 0 -0.56055,-1.101562 c -0.47682,-0.363294 -0.85371,-0.696038 -1.12305,-0.978516 a 1.4249673,1.4249673 0 0 0 -1.3164,-0.414062 c -1.20841,0.247506 -2.21397,0.234127 -3.05469,0.01758 a 1.4249673,1.4249673 0 0 0 -0.42383,-0.04492 z m -93.20898,0.03516 c -0.93036,0.241868 -3.04797,0.356607 -2.40625,0.246094 l -0.97852,0.322265 a 1.4249673,1.4249673 0 0 0 -0.94336,1.03125 l -0.49609,2.134766 a 1.4249673,1.4249673 0 0 0 -0.0371,0.322266 v 0.482421 a 1.4249673,1.4249673 0 0 0 0.0312,0.294922 c 0.19039,0.900725 0.21896,1.621229 0.14453,2.13086 a 1.4249673,1.4249673 0 0 0 0.004,0.4375 l 0.14257,0.863281 v 1.197266 l 0.002,-0.03125 c -0.0228,1.023763 -0.019,1.85078 0,2.582031 l -0.0918,0.28125 a 1.4249673,1.4249673 0 0 0 -0.0566,0.642578 l 0.0996,0.710938 0.0371,-0.07617 a 1.4249673,1.4249673 0 0 0 -0.15235,0.640625 v 1.314453 l 0.002,-0.04297 c -0.0522,1.749499 0.0571,3.232073 0.3789,4.490234 a 1.4249673,1.4249673 0 0 0 0.35938,0.640625 l 0.48242,0.496094 a 1.4249673,1.4249673 0 0 0 1.16016,0.423828 c 1.37127,-0.133209 2.47373,-0.123579 3.26367,-0.0078 a 1.4249673,1.4249673 0 0 0 1.0625,-0.269532 c 0.21295,-0.159712 0.37412,-0.229091 0.47851,-0.255859 a 1.4249673,1.4249673 0 0 0 0.32422,-0.128906 1.4249673,1.4249673 0 0 0 1.24414,0.828125 c 3.76457,0.131475 6.89046,-0.611758 9.19922,-2.408203 2.30876,-1.796446 3.64714,-4.57972 4.0586,-8.023438 a 1.4249673,1.4249673 0 0 0 0.008,-0.269531 c -0.26084,-3.709315 -1.44392,-6.682892 -3.68945,-8.603516 -2.24554,-1.920624 -5.3812,-2.652609 -9.14063,-2.392578 a 1.4249673,1.4249673 0 0 0 -1.00781,0.523438 c -0.15824,0.195017 -0.17635,0.442429 -0.31055,0.648437 a 1.4249673,1.4249673 0 0 0 -1.36133,-1.001953 h -0.46093 c -0.47224,-0.09305 -0.92496,-0.173828 -1.34961,-0.173828 z m -143.771488,0.08984 c -1.969355,0.39677 -1.755315,0.75026 -2.835938,0.355468 a 1.4249673,1.4249673 0 0 0 -1.501953,0.609376 c -0.867164,1.320912 -1.248287,2.845617 -1.009765,4.341796 a 1.4249673,1.4249673 0 0 0 0.0332,0.158204 l 0.484375,1.736328 a 1.4249673,1.4249673 0 0 0 0.908203,0.964843 l 0.470703,0.16211 a 1.4249673,1.4249673 0 0 0 0.792969,0.03906 c 1.039994,-0.245944 2.050603,-0.285164 3.070312,-0.138672 -0.01914,0.172904 -0.01559,0.431434 -0.04102,0.576172 a 1.4249673,1.4249673 0 0 0 -0.01563,0.125 c -0.09234,1.077336 -0.132105,1.943438 -0.140625,2.707031 l -0.09961,0.300782 a 1.4249673,1.4249673 0 0 0 -0.07422,0.449218 v 1.265626 a 1.4249673,1.4249673 0 0 0 0.0039,0.09961 c 0.09893,1.41541 -0.0065,2.573534 -0.267578,3.470703 a 1.4249673,1.4249673 0 0 0 -0.01953,0.722656 l 0.482422,2.070313 a 1.4249673,1.4249673 0 0 0 0.603516,0.867187 l 0.472656,0.310547 a 1.4249673,1.4249673 0 0 0 0.142578,0.08203 l 0.322266,0.16211 a 1.4249673,1.4249673 0 0 0 1.193359,0.03906 c 0.78273,-0.32991 1.396568,-0.380016 1.980469,-0.246094 a 1.4249673,1.4249673 0 0 0 0.490234,0.02539 c 0.843769,-0.10262 1.667781,-0.431451 2.275391,-1.039062 a 1.4249673,1.4249673 0 0 0 0.417969,-1.007813 v -0.791016 l 0.109375,-0.470703 a 1.4249673,1.4249673 0 0 0 -0.101563,-0.941406 l -0.0078,-0.01758 V 74.636719 A 1.4249673,1.4249673 0 0 0 43.28125,73.996094 l -0.0098,-0.01953 v -0.134765 -0.470703 -1.720703 a 1.4249673,1.4249673 0 0 0 0.134766,-0.933594 c -0.212673,-1.085371 -0.238802,-1.964069 -0.146484,-2.644531 l 0.0957,-0.279297 a 1.4249673,1.4249673 0 0 0 0.07813,-0.462891 v -1.314453 a 1.4249673,1.4249673 0 0 0 0.52539,0.01953 c 0.863436,-0.131242 1.523067,-0.07128 2.025391,0.101563 a 1.4249673,1.4249673 0 0 0 1.466797,-0.337891 c 1.738098,-1.727873 2.195519,-4.24014 1.28125,-6.609375 a 1.4249673,1.4249673 0 0 0 -1.101563,-0.892578 c -0.752829,-0.122081 -1.504009,-0.125856 -2.228515,0.0039 l 0.251953,-0.02344 h -0.277344 l -0.927734,-0.257813 a 1.4249673,1.4249673 0 0 0 -1.503907,0.496094 1.4249673,1.4249673 0 0 0 -0.0039,-0.002 l -0.470703,-0.310547 a 1.4249673,1.4249673 0 0 0 -1.017578,-0.216797 c -1.06894,0.176977 -2.007941,0.126767 -2.869141,-0.123047 a 1.4249673,1.4249673 0 0 0 -0.99414,0.07617 l -0.966797,0.447266 a 1.4249673,1.4249673 0 0 0 -0.138672,0.07422 c -0.03204,-0.04088 -0.02499,-0.104521 -0.05859,-0.144532 a 1.4249673,1.4249673 0 0 0 -1.130859,-0.507812 z m 52.509766,0 a 1.4249673,1.4249673 0 0 0 -1.070313,0.433594 c -1.133793,1.174284 -1.77236,2.68031 -1.634766,4.216796 a 1.4249673,1.4249673 0 0 0 0.205079,0.617188 l 0.376953,0.615234 0.568359,1.84961 a 1.4249673,1.4249673 0 0 0 0.136719,0.3125 l 0.40039,0.669922 0.267579,0.673828 a 1.4249673,1.4249673 0 0 0 0.144531,0.27539 l 0.173828,0.25586 0.09961,0.384765 a 1.4249673,1.4249673 0 0 0 0.21875,0.466797 c 0.228428,0.319798 0.32741,0.578013 0.361328,0.789063 a 1.4249673,1.4249673 0 0 0 0.216797,0.558593 l 0.189453,0.28711 0.25,0.86914 a 1.4249673,1.4249673 0 0 0 0.265625,0.509766 c 0.512972,0.626965 0.822301,1.161809 0.982422,1.574219 l 0.09766,0.46289 v 1.712891 a 1.4249673,1.4249673 0 0 0 0.01953,0.224609 l 0.148437,0.929688 a 1.4249673,1.4249673 0 0 0 0.431641,0.816406 c 0.274055,0.256562 0.384535,0.450537 0.416015,0.537109 a 1.4249673,1.4249673 0 0 0 1.056641,0.910157 c 0.551709,0.112212 1.046526,0.177734 1.523438,0.177734 h 0.222656 l 0.248047,0.08398 a 1.4249673,1.4249673 0 0 0 0.458984,0.07617 c 0.794552,0 1.448849,0.04942 1.9375,0.13086 a 1.4249673,1.4249673 0 0 0 1.400391,-0.587891 c 0.432198,-0.616517 0.561515,-1.29388 0.765625,-1.957031 0.370125,0.428866 0.623861,0.828645 0.746094,1.166015 a 1.4249673,1.4249673 0 0 0 1.115232,0.919922 c 2.21937,0.3551 4.24026,0.310945 6.04297,-0.197265 a 1.4249673,1.4249673 0 0 0 1.00977,-1.087891 c 0.11148,-0.548136 0.17968,-1.04106 0.17968,-1.523437 a 1.4249673,1.4249673 0 0 0 -0.0684,-0.433594 c -0.17794,-0.556792 -0.38126,-0.951337 -0.57812,-1.384766 a 1.4249673,1.4249673 0 0 0 1.99414,-0.902343 l 0.76953,-2.791016 a 1.4249673,1.4249673 0 0 0 0.006,-0.02344 l 0.12305,-0.472656 0.24218,-0.484375 a 1.4249673,1.4249673 0 0 0 0.125,-0.369141 l 0.11133,-0.576171 0.22266,-0.44336 a 1.4249673,1.4249673 0 0 0 0.12109,-0.345703 l 0.14649,-0.701172 0.11914,-0.375 c 0.15959,-0.471528 0.22996,-0.905089 0.29297,-1.341797 0.88182,-1.585841 1.45592,-3.147408 1.63281,-4.683593 a 1.4249673,1.4249673 0 0 0 -0.31641,-1.06836 l -0.76758,-0.929687 a 1.4249673,1.4249673 0 0 0 -1.32421,-0.5 c -1.47212,0.235234 -2.74994,0.224397 -3.83985,0.0078 a 1.4249673,1.4249673 0 0 0 -1.05859,0.207031 l -0.4707,0.308594 a 1.4249673,1.4249673 0 0 0 -0.39844,0.392578 l -0.31055,0.458985 a 1.4249673,1.4249673 0 0 0 -0.23633,0.632812 c -0.11346,0.968254 -0.30127,1.73083 -0.52148,2.265625 a 1.4249673,1.4249673 0 0 0 -0.0918,0.337891 c -0.0879,0.603363 -0.28603,1.106778 -0.52344,1.585937 -0.32477,-0.668025 -0.66667,-1.355915 -0.83398,-1.857422 0.0344,-0.505111 0.0712,-1.007529 -0.008,-1.472656 a 1.4249673,1.4249673 0 0 0 -0.36719,-0.740234 c -0.27066,-0.286899 -0.37146,-0.505067 -0.41016,-0.695313 a 1.4249673,1.4249673 0 0 0 -0.9375,-1.066406 l -0.4707,-0.160156 a 1.4249673,1.4249673 0 0 0 -0.580078,-0.07031 c -1.116057,0.09483 -2.063947,-0.0018 -2.867187,-0.251953 a 1.4249673,1.4249673 0 0 0 -1.560547,0.501953 c -0.689055,0.910312 -1.070426,1.922026 -1.294922,2.960938 L 92.96875,59.056641 a 1.4249673,1.4249673 0 0 0 -0.679688,-0.777344 l -0.310546,-0.162109 a 1.4249673,1.4249673 0 0 0 -0.941407,-0.132813 c -1.118702,0.225148 -2.028126,0.17069 -2.814453,-0.09961 a 1.4249673,1.4249673 0 0 0 -0.417968,-0.07617 z m 34.900392,0 c -0.82922,0.211126 -3.30874,0.7909 -2.50391,0.509765 -3.14345,1.943614 2.99071,-3.54613 -1.79687,0.621094 -3.93884,3.242172 -5.62368,7.519223 -4.66992,12.150391 a 1.4249673,1.4249673 0 0 0 0.0137,0.05469 c 0.61278,2.482688 1.7071,4.509802 3.34179,5.921875 1.6347,1.412074 3.76241,2.142962 6.17578,2.230469 a 1.4249673,1.4249673 0 0 0 0.83985,-0.238281 l 0.48242,-0.320313 a 1.4249673,1.4249673 0 0 0 0.98633,0.398438 c 0.69362,0 1.33183,-0.05837 1.92773,-0.199219 a 1.4249673,1.4249673 0 0 0 0.5918,-0.298828 c 0.87921,-0.743395 1.68583,-1.141832 2.42578,-1.291016 a 1.4249673,1.4249673 0 0 0 0.56641,-0.251953 c 0.37582,-0.278628 0.64849,-0.38048 0.70898,-0.392578 a 1.4249673,1.4249673 0 0 0 0.9082,-0.609375 c 2.00016,-3.013442 2.96359,-6.024028 2.68555,-8.941406 -0.27803,-2.917378 -1.80179,-5.616268 -4.33789,-7.992188 a 1.4249673,1.4249673 0 0 0 -0.46875,-0.292968 c -1.56739,-0.595436 -2.97077,-0.957334 -4.25586,-1.054688 a 1.4249673,1.4249673 0 0 0 -0.74414,0.146484 l -0.64453,0.322266 a 1.4249673,1.4249673 0 0 0 -0.54688,0.482422 c -0.34554,-0.394311 -0.76365,-0.724211 -1.26562,-0.886719 a 1.4249673,1.4249673 0 0 0 -0.41992,-0.06836 z m 15.48633,0 c -1.25704,0.12629 -2.70997,3.527051 -2.23243,2.558594 -0.25019,0.887021 -0.0934,3.602061 0.084,2.697265 0.0478,1.430681 0.18429,5.700369 0.0117,4.080078 l -0.12891,0.5 a 1.4249673,1.4249673 0 0 0 -0.043,0.322266 c -0.0217,0.956809 -0.0163,1.718067 0,2.414062 l -0.0117,0.02344 a 1.4249673,1.4249673 0 0 0 -0.11914,0.929687 c 0.13646,0.646361 0.16767,1.152344 0.13672,1.482422 -0.1968,1.883393 -0.20876,3.474565 0.0117,4.826172 a 1.4249673,1.4249673 0 0 0 0.83984,1.078125 c 0.61493,0.266164 1.17468,0.462783 1.72071,0.574219 a 1.4249673,1.4249673 0 0 0 0.71094,-0.03711 c 1.0726,-0.335187 1.97227,-0.459747 2.68554,-0.421874 a 1.4249673,1.4249673 0 0 0 0.42774,-0.04102 c 0.82455,-0.210179 1.61209,-0.997682 1.82226,-1.822266 a 1.4249673,1.4249673 0 0 0 0.0156,-0.06641 l 0.16211,-0.794922 a 1.4249673,1.4249673 0 0 0 -0.0156,-0.638672 c -0.14149,-0.551089 -0.23533,-1.068683 -0.28515,-1.552734 a 1.4249673,1.4249673 0 0 0 -0.0371,-0.207031 l -0.10938,-0.425782 c 0.009,-0.06743 0.006,-0.122998 0.0137,-0.189453 0.14314,0.16877 0.27151,0.386745 0.42188,0.53711 l -0.0449,-0.04687 c 0.52881,0.578837 0.84997,1.08765 1.0039,1.480468 a 1.4249673,1.4249673 0 0 0 0.41992,0.580079 c 0.88901,0.732541 1.47512,1.502054 1.83008,2.328124 a 1.4249673,1.4249673 0 0 0 0.79102,0.765626 c 1.00418,0.39163 2.09634,0.45211 3.15625,0.242187 0.596,0.199578 1.19326,0.435691 1.8164,0.335937 0.87048,-0.139347 1.64927,-0.643202 2.21289,-1.30664 a 1.4249673,1.4249673 0 0 0 0.28711,-1.302734 c -0.20726,-0.747952 -0.4423,-1.405602 -0.72265,-1.986329 a 1.4249673,1.4249673 0 0 0 -0.31641,-0.427734 c -0.36339,-0.335446 -0.60235,-0.625973 -0.72265,-0.820313 a 1.4249673,1.4249673 0 0 0 -0.4043,-0.423828 c -0.74691,-0.513765 -1.25543,-1.091036 -1.66406,-1.708984 a 1.4249673,1.4249673 0 0 0 1.0625,-0.59375 c 1.74349,-2.450069 2.46348,-5.183607 2.0039,-7.921875 a 1.4249673,1.4249673 0 0 0 -0.39648,-0.771484 l -0.29492,-0.294922 c -0.60059,-1.090198 -1.22371,-2.057849 -1.95704,-2.763672 a 1.4249673,1.4249673 0 0 0 -0.64843,-0.357422 l -1.85938,-0.455078 -0.4082,-0.140625 a 1.4249673,1.4249673 0 0 0 -0.83594,-0.02734 l 0.20508,0.101563 a 1.4249673,1.4249673 0 0 0 -0.23828,-0.0918 1.4249673,1.4249673 0 0 0 -0.0488,0.01367 l 0.0469,-0.01563 a 1.4249673,1.4249673 0 0 0 -0.32813,-0.05664 l -3.1875,-0.160156 a 1.4249673,1.4249673 0 0 0 -0.99414,0.33789 c -0.17029,0.144703 -0.26873,0.338136 -0.41992,0.498047 a 1.4249673,1.4249673 0 0 0 -0.75391,-0.601562 l -0.4707,-0.160157 a 1.4249673,1.4249673 0 0 0 -0.61719,-0.06641 c -1.32412,0.147125 -2.43059,0.139784 -3.29883,0.0078 a 1.4249673,1.4249673 0 0 0 -0.28515,-0.01563 z m 69.47461,0 c -0.76767,0.174681 -2.75167,1.57152 -2.17579,1.015625 -0.01,-0.02085 -0.009,-0.04367 -0.0195,-0.06445 a 1.4249673,1.4249673 0 0 0 -1.93554,-0.63086 h -1.10352 a 1.4249673,1.4249673 0 0 0 -0.54102,0.107422 c -0.48887,0.200565 -0.84639,0.245296 -1.08789,0.222656 a 1.4249673,1.4249673 0 0 0 -1.12109,0.390625 c -1.86706,1.794905 -3.00035,3.6943 -2.96289,5.726563 0.0375,2.032262 1.30158,3.823594 3.27148,5.267578 a 1.4249673,1.4249673 0 0 0 0.0527,0.03711 l 0.15234,0.101563 c -0.24612,-0.04716 -0.63024,0.0025 -0.83789,-0.06836 a 1.4249673,1.4249673 0 0 0 -1.61719,0.515626 l -1.27734,1.773437 a 1.4249673,1.4249673 0 0 0 -0.20312,1.259766 c 0.62522,1.99061 1.61981,3.590914 3.05859,4.61914 1.43878,1.028227 3.25207,1.396064 5.19141,1.181641 a 1.4249673,1.4249673 0 0 0 0.89648,-0.457031 c 0.14412,-0.158099 0.19692,-0.36969 0.31836,-0.544922 0.029,0.04024 0.0362,0.09149 0.0664,0.130859 a 1.4249673,1.4249673 0 0 0 0.79296,0.517578 c 1.72589,0.421439 3.5104,-0.08361 4.65625,-1.34375 1.73163,-1.088279 2.85523,-2.822927 2.88477,-4.832031 a 1.4249673,1.4249673 0 0 0 0.002,-0.02148 c 0,-1.117203 -0.11369,-2.10619 -0.38672,-2.988282 a 1.4249673,1.4249673 0 0 0 -0.35351,-0.585937 c -0.49493,-0.494926 -0.83965,-0.943021 -1.04492,-1.306641 a 1.4249673,1.4249673 0 0 0 -0.96485,-0.697265 c -0.10786,-0.02131 -0.12209,-0.0552 -0.21484,-0.08008 0.0386,0.0063 0.0992,-0.0073 0.13672,0 a 1.4249673,1.4249673 0 0 0 1.42578,-0.560547 c 0.63552,-0.874449 1.08165,-1.755791 1.24805,-2.69336 0.16639,-0.937568 -0.002,-1.935745 -0.49024,-2.751953 -0.97743,-1.632416 -2.84884,-2.522096 -5.39258,-3.193359 a 1.4249673,1.4249673 0 0 0 -0.42382,-0.04687 z m 29.51757,0 c -0.76766,0.174681 -2.75166,1.57152 -2.17578,1.015625 -0.01,-0.02085 -0.009,-0.04367 -0.0195,-0.06445 a 1.4249673,1.4249673 0 0 0 -1.93555,-0.63086 h -1.10351 a 1.4249673,1.4249673 0 0 0 -0.54102,0.107422 c -0.48887,0.200565 -0.8464,0.245296 -1.08789,0.222656 a 1.4249673,1.4249673 0 0 0 -1.12109,0.390625 c -1.86706,1.794905 -3.00035,3.6943 -2.96289,5.726563 0.0375,2.032263 1.30158,3.823594 3.27148,5.267578 a 1.4249673,1.4249673 0 0 0 0.0527,0.03711 l 0.15234,0.101563 c -0.24612,-0.04716 -0.63024,0.0025 -0.83789,-0.06836 a 1.4249673,1.4249673 0 0 0 -1.61719,0.515626 l -1.27734,1.773437 a 1.4249673,1.4249673 0 0 0 -0.20313,1.259766 c 0.62523,1.990609 1.61982,3.590913 3.0586,4.61914 1.43878,1.028228 3.25207,1.396064 5.1914,1.181641 a 1.4249673,1.4249673 0 0 0 0.89649,-0.457031 c 0.14412,-0.158099 0.19692,-0.36969 0.31836,-0.544922 0.029,0.04024 0.0362,0.09149 0.0664,0.130859 a 1.4249673,1.4249673 0 0 0 0.79297,0.517578 c 1.7259,0.421438 3.51039,-0.08361 4.65625,-1.34375 1.73163,-1.088279 2.85523,-2.822927 2.88477,-4.832031 a 1.4249673,1.4249673 0 0 0 0.002,-0.02148 c 0,-1.117203 -0.11368,-2.106177 -0.38672,-2.988282 a 1.4249673,1.4249673 0 0 0 -0.35351,-0.585937 c -0.49492,-0.49492 -0.83965,-0.943009 -1.04492,-1.306641 a 1.4249673,1.4249673 0 0 0 -0.96485,-0.697265 c -0.10787,-0.02131 -0.1221,-0.0552 -0.21484,-0.08008 0.0386,0.0063 0.0992,-0.0073 0.13672,0 a 1.4249673,1.4249673 0 0 0 1.42578,-0.560547 c 0.63553,-0.874449 1.08165,-1.755791 1.24804,-2.69336 0.1664,-0.937569 -0.002,-1.935744 -0.49023,-2.751953 -0.97743,-1.632417 -2.84884,-2.522096 -5.39258,-3.193359 a 1.4249673,1.4249673 0 0 0 -0.42383,-0.04687 z m 11.92774,0 c -1.96936,0.39677 -1.75532,0.750261 -2.83594,0.355468 a 1.4249673,1.4249673 0 0 0 -1.50195,0.609376 c -0.86715,1.320908 -1.24829,2.845613 -1.00977,4.341796 a 1.4249673,1.4249673 0 0 0 0.0332,0.158204 l 0.48437,1.736328 a 1.4249673,1.4249673 0 0 0 0.9082,0.964843 l 0.47071,0.16211 a 1.4249673,1.4249673 0 0 0 0.79296,0.03906 c 1.04,-0.245945 2.05061,-0.285164 3.07032,-0.138672 -0.0191,0.172903 -0.0156,0.431437 -0.041,0.576172 a 1.4249673,1.4249673 0 0 0 -0.0156,0.125 c -0.0924,1.077336 -0.13211,1.943437 -0.14063,2.707031 l -0.0996,0.300782 a 1.4249673,1.4249673 0 0 0 -0.0742,0.449218 v 1.265626 a 1.4249673,1.4249673 0 0 0 0.004,0.09961 c 0.0989,1.415409 -0.006,2.573534 -0.26758,3.470703 a 1.4249673,1.4249673 0 0 0 -0.0195,0.722656 l 0.48242,2.070313 a 1.4249673,1.4249673 0 0 0 0.60352,0.867187 l 0.47265,0.310547 a 1.4249673,1.4249673 0 0 0 0.14258,0.08203 l 0.32227,0.16211 a 1.4249673,1.4249673 0 0 0 1.19336,0.03906 c 0.78273,-0.329911 1.39656,-0.380016 1.98047,-0.246094 a 1.4249673,1.4249673 0 0 0 0.49023,0.02539 c 0.84376,-0.102621 1.66778,-0.431458 2.27539,-1.039062 A 1.4249673,1.4249673 0 0 0 257.25,77.017578 v -0.791016 l 0.10938,-0.470703 a 1.4249673,1.4249673 0 0 0 -0.10157,-0.941406 l -0.008,-0.01758 v -0.160156 a 1.4249673,1.4249673 0 0 0 -0.15234,-0.640625 l -0.01,-0.01953 v -0.134765 -0.470703 -1.720703 a 1.4249673,1.4249673 0 0 0 0.13477,-0.933594 c -0.21268,-1.085368 -0.23881,-1.964064 -0.14649,-2.644531 l 0.0957,-0.279297 a 1.4249673,1.4249673 0 0 0 0.0781,-0.462891 v -1.314453 a 1.4249673,1.4249673 0 0 0 0.52539,0.01953 c 0.86344,-0.131242 1.52308,-0.07128 2.02539,0.101563 a 1.4249673,1.4249673 0 0 0 1.4668,-0.337891 c 1.7381,-1.727871 2.19552,-4.240137 1.28125,-6.609375 a 1.4249673,1.4249673 0 0 0 -1.10156,-0.892578 c -0.75284,-0.122081 -1.50401,-0.125857 -2.22852,0.0039 l 0.25195,-0.02344 h -0.27734 l -0.92774,-0.257813 a 1.4249673,1.4249673 0 0 0 -1.5039,0.496094 1.4249673,1.4249673 0 0 0 -0.004,-0.002 l -0.4707,-0.310547 a 1.4249673,1.4249673 0 0 0 -1.01758,-0.216797 c -1.06894,0.176977 -2.00795,0.126765 -2.86914,-0.123047 a 1.4249673,1.4249673 0 0 0 -0.99414,0.07617 l -0.9668,0.447266 a 1.4249673,1.4249673 0 0 0 -0.13867,0.07422 c -0.032,-0.04088 -0.025,-0.104521 -0.0586,-0.144532 a 1.4249673,1.4249673 0 0 0 -1.13086,-0.507812 z m 41.17578,0 c -1.96935,0.39677 -1.7553,0.750259 -2.83594,0.355468 a 1.4249673,1.4249673 0 0 0 -1.50195,0.609376 c -0.86715,1.320908 -1.24829,2.845613 -1.00977,4.341796 a 1.4249673,1.4249673 0 0 0 0.0332,0.158204 l 0.48437,1.736328 a 1.4249673,1.4249673 0 0 0 0.9082,0.964843 l 0.47071,0.16211 a 1.4249673,1.4249673 0 0 0 0.79297,0.03906 c 1.03999,-0.245945 2.0506,-0.285164 3.07031,-0.138672 -0.0191,0.172903 -0.0156,0.431437 -0.041,0.576172 a 1.4249673,1.4249673 0 0 0 -0.0156,0.125 c -0.0924,1.077336 -0.13211,1.943437 -0.14063,2.707031 l -0.0996,0.300782 a 1.4249673,1.4249673 0 0 0 -0.0742,0.449218 v 1.265626 a 1.4249673,1.4249673 0 0 0 0.004,0.09961 c 0.0989,1.415414 -0.006,2.573534 -0.26758,3.470703 a 1.4249673,1.4249673 0 0 0 -0.0195,0.722656 l 0.48242,2.070313 a 1.4249673,1.4249673 0 0 0 0.60352,0.867187 l 0.47266,0.310547 a 1.4249673,1.4249673 0 0 0 0.14257,0.08203 l 0.32227,0.16211 a 1.4249673,1.4249673 0 0 0 1.19336,0.03906 c 0.78273,-0.329911 1.39656,-0.380016 1.98047,-0.246094 a 1.4249673,1.4249673 0 0 0 0.49023,0.02539 c 0.84377,-0.10262 1.66779,-0.431468 2.27539,-1.039062 a 1.4249673,1.4249673 0 0 0 0.41797,-1.007813 v -0.791016 l 0.10938,-0.470703 a 1.4249673,1.4249673 0 0 0 -0.10157,-0.941406 l -0.008,-0.01758 v -0.160156 a 1.4249673,1.4249673 0 0 0 -0.15234,-0.640625 l -0.01,-0.01953 v -0.134765 -0.470703 -1.720703 a 1.4249673,1.4249673 0 0 0 0.13477,-0.933594 c -0.21268,-1.085368 -0.2388,-1.964064 -0.14649,-2.644531 l 0.0957,-0.279297 a 1.4249673,1.4249673 0 0 0 0.0781,-0.462891 v -1.314453 a 1.4249673,1.4249673 0 0 0 0.52539,0.01953 c 0.86344,-0.131242 1.52308,-0.07128 2.02539,0.101563 a 1.4249673,1.4249673 0 0 0 1.4668,-0.337891 c 1.7381,-1.727871 2.19553,-4.240137 1.28125,-6.609375 a 1.4249673,1.4249673 0 0 0 -1.10156,-0.892578 c -0.75283,-0.12208 -1.50401,-0.125855 -2.22852,0.0039 l 0.25195,-0.02344 h -0.27734 l -0.92773,-0.257813 a 1.4249673,1.4249673 0 0 0 -1.50391,0.496094 1.4249673,1.4249673 0 0 0 -0.004,-0.002 l -0.4707,-0.310547 a 1.4249673,1.4249673 0 0 0 -1.01758,-0.216797 c -1.06893,0.176977 -2.00793,0.126768 -2.86914,-0.123047 a 1.4249673,1.4249673 0 0 0 -0.99414,0.07617 l -0.9668,0.447266 a 1.4249673,1.4249673 0 0 0 -0.13867,0.07422 c -0.032,-0.04088 -0.025,-0.104521 -0.0586,-0.144532 a 1.4249673,1.4249673 0 0 0 -1.13086,-0.507812 z m 25.37891,0 c -0.76812,0.175116 -2.754,1.572105 -2.17774,1.015625 -0.01,-0.02084 -0.009,-0.04368 -0.0195,-0.06445 a 1.4249673,1.4249673 0 0 0 -1.93555,-0.63086 h -1.10156 a 1.4249673,1.4249673 0 0 0 -0.54102,0.107422 c -0.48887,0.200565 -0.84639,0.245296 -1.08789,0.222656 a 1.4249673,1.4249673 0 0 0 -1.12109,0.390625 c -1.86706,1.794905 -3.00035,3.6943 -2.96289,5.726563 0.0375,2.032262 1.30158,3.823594 3.27148,5.267578 a 1.4249673,1.4249673 0 0 0 0.0508,0.03711 l 0.15234,0.101563 c -0.24545,-0.04713 -0.6285,0.0025 -0.83594,-0.06836 a 1.4249673,1.4249673 0 0 0 -1.61719,0.515626 l -1.27734,1.773437 a 1.4249673,1.4249673 0 0 0 -0.20312,1.259766 c 0.62522,1.99061 1.61981,3.590914 3.05859,4.61914 1.43878,1.028227 3.25207,1.396064 5.19141,1.181641 a 1.4249673,1.4249673 0 0 0 0.89648,-0.457031 c 0.14374,-0.157677 0.19718,-0.368245 0.31836,-0.542969 0.0285,0.03952 0.0348,0.09023 0.0645,0.128906 a 1.4249673,1.4249673 0 0 0 0.79297,0.517578 c 1.72618,0.421507 3.51165,-0.0829 4.6582,-1.34375 1.73163,-1.088279 2.85523,-2.822927 2.88477,-4.832031 a 1.4249673,1.4249673 0 0 0 0.002,-0.02148 c 0,-1.119025 -0.11635,-2.108502 -0.38867,-2.988282 a 1.4249673,1.4249673 0 0 0 -0.35351,-0.585937 c -0.49493,-0.49492 -0.83965,-0.943009 -1.04493,-1.306641 A 1.4249673,1.4249673 0 0 0 319.375,67.134766 c -0.10794,-0.02132 -0.12223,-0.05523 -0.21484,-0.08008 0.0392,0.0064 0.10065,-0.0074 0.13867,0 a 1.4249673,1.4249673 0 0 0 1.42578,-0.560547 c 0.63552,-0.874449 1.08165,-1.755791 1.24805,-2.69336 0.16639,-0.937568 -0.002,-1.935745 -0.49024,-2.751953 -0.97743,-1.632416 -2.84884,-2.522096 -5.39258,-3.193359 a 1.4249673,1.4249673 0 0 0 -0.42382,-0.04687 z M 67.009766,62.082031 c -0.01799,0.738244 0.248867,2.97941 0.101562,2.226563 l 0.148438,7.476562 c -0.128407,0.869414 -0.190889,1.692289 -0.207032,2.482422 0.02156,-0.57759 0.129615,-1.168039 -0.107422,-1.703125 -0.372942,-0.84188 -1.142222,-1.473496 -1.986328,-1.783203 a 1.4249673,1.4249673 0 0 0 -1.292968,0.160156 l -0.109375,0.07422 h -0.634766 c 0.197716,-0.187444 0.498887,-0.234858 0.630859,-0.472656 0.776399,-1.398979 0.418224,-2.923779 -0.269531,-4.72461 a 1.4249673,1.4249673 0 0 0 -0.05078,-0.113281 h 1.384766 a 1.4249673,1.4249673 0 0 0 0.996093,-0.408203 l 0.632813,-0.619141 a 1.4249673,1.4249673 0 0 0 0.376953,-0.636718 c 0.196115,-0.706016 0.320409,-1.344861 0.386719,-1.958985 z m 138.222654,2.076172 a 1.4249673,1.4249673 0 0 0 0.23828,0.285156 c -0.12665,-0.03126 -0.24462,-0.0633 -0.36132,-0.09766 0.0387,-0.06341 0.0867,-0.123232 0.12304,-0.1875 z m 29.51758,0 a 1.4249673,1.4249673 0 0 0 0.23828,0.285156 c -0.12665,-0.03126 -0.24462,-0.0633 -0.36133,-0.09766 0.0387,-0.06341 0.0867,-0.123232 0.12305,-0.1875 z m 78.48242,0 a 1.4249673,1.4249673 0 0 0 0.23828,0.285156 c -0.12665,-0.03126 -0.24462,-0.0633 -0.36132,-0.09766 0.0387,-0.06342 0.0868,-0.123221 0.12304,-0.1875 z m -188.57226,0.710938 a 1.4249673,1.4249673 0 0 0 0.0644,0.02734 c 1.99195,0.79404 2.69553,1.789151 2.76953,3.587891 -0.26973,1.907294 -0.99533,2.927639 -2.49023,3.580078 a 1.4249673,1.4249673 0 0 0 -0.64258,0.5625 l -0.23047,-0.294922 a 1.4249673,1.4249673 0 0 0 -0.61133,-0.453125 c -0.94826,-0.364716 -1.40344,-0.792112 -1.65039,-1.298828 -0.24695,-0.506716 -0.32821,-1.230417 -0.0586,-2.326172 a 1.4249673,1.4249673 0 0 0 0.0312,-0.164062 c 0.22304,-1.797828 0.83767,-2.536442 2.36523,-2.990235 a 1.4249673,1.4249673 0 0 0 0.45313,-0.230468 z m 19.33203,0.160156 c 0.39589,0.290792 1.2613,0.334553 0.96093,0.28125 a 1.4249673,1.4249673 0 0 0 -0.96093,0.544922 v -0.71875 z m 38.61523,0.507812 c 0.93438,0.926917 2.32825,0.534482 1.75196,0.564453 1.27014,-0.341551 1.99092,-0.222579 2.33984,-0.01367 0.33182,0.198672 0.61518,0.624833 0.75586,1.625 -0.0999,1.338476 -0.46112,2.134793 -0.9668,2.59375 -0.52505,0.476535 -1.34954,0.767972 -2.76367,0.697265 a 1.4249673,1.4249673 0 0 0 -0.99414,0.339844 l 0.0137,-0.05273 a 1.4249673,1.4249673 0 0 0 0.0391,-0.386719 c -0.0234,-0.67068 -0.0796,-1.242645 -0.1582,-1.777344 V 67.34375 65.707031 l -0.004,0.07617 c 0.005,-0.09743 -0.0183,-0.149823 -0.0137,-0.246094 z M 59.705078,65.861328 a 1.4249673,1.4249673 0 0 0 0.0098,0 l -0.0059,0.0059 h -0.01172 a 1.4249673,1.4249673 0 0 0 0.0078,-0.0059 z m 17.710938,0 a 1.4249673,1.4249673 0 0 0 0.0098,0 l -0.0059,0.0059 h -0.01172 a 1.4249673,1.4249673 0 0 0 0.0078,-0.0059 z m 145.474604,0.0059 a 1.4249673,1.4249673 0 0 0 -0.62695,0.15039 h -0.27344 a 1.4249673,1.4249673 0 0 0 -0.27148,0.02734 c -0.7835,0.152539 -1.37221,0.13018 -1.77734,0.02148 a 1.4249673,1.4249673 0 0 0 -0.7168,-0.0039 c -0.95905,0.241537 -1.75793,0.26775 -2.42383,0.140625 a 1.4249673,1.4249673 0 0 0 -1.28516,0.402344 c -1.0715,1.093385 -1.57147,2.649468 -1.28906,4.140625 a 1.4249673,1.4249673 0 0 0 0.19141,0.488281 l 0.75781,1.216797 a 1.4249673,1.4249673 0 0 0 1.20899,0.671875 h 0.45898 a 1.4249673,1.4249673 0 0 0 0.68359,-0.175781 l -0.0234,0.01367 h 0.24414 a 1.4249673,1.4249673 0 0 0 0.19922,-0.01563 l 0.98632,-0.138671 2.64063,-0.117188 0.0156,0.01563 a 1.4249673,1.4249673 0 0 0 1.25782,0.394531 l 0.90625,-0.162109 a 1.4249673,1.4249673 0 0 0 0.98047,-0.683594 c 1.00206,-1.717846 1.08736,-3.761361 0.17578,-5.478515 a 1.4249673,1.4249673 0 0 0 -0.98047,-0.728516 l -0.75586,-0.150391 a 1.4249673,1.4249673 0 0 0 -0.28321,-0.0293 z m 50.55469,3.488281 0.0137,0.04883 -0.0254,0.01172 c -0.003,-6.04e-4 -0.007,5.98e-4 -0.01,0 0.008,-0.02052 0.0139,-0.04009 0.0215,-0.06055 z m -169.14062,0.05078 a 1.4249673,1.4249673 0 0 0 0.006,0.0078 1.4249673,1.4249673 0 0 0 0.002,0.01563 l -0.008,-0.0078 z m -44.837893,2.552734 c 0.295059,0.052 0.330775,0.01469 0,0 z m 17.710937,0 c 0.29506,0.052 0.330776,0.01469 0,0 z m 128.236326,1.351563 c 0.0512,0.03333 0.11845,0.06402 0.16797,0.09766 -0.008,0.01237 -0.0216,0.02275 -0.0293,0.03516 -0.0382,-0.047 -0.0987,-0.0865 -0.13867,-0.132812 z m 108,0 c 0.0512,0.03333 0.11845,0.06402 0.16797,0.09766 -0.008,0.01237 -0.0216,0.02275 -0.0293,0.03516 -0.0382,-0.047 -0.0987,-0.0865 -0.13867,-0.132812 z m -78.48047,0.002 c 0.0504,0.03287 0.1172,0.06254 0.16602,0.0957 -0.008,0.01237 -0.0216,0.02275 -0.0293,0.03516 -0.0376,-0.04632 -0.0973,-0.0852 -0.13672,-0.130859 z" />
    <text
       xml:space="preserve"
       style="font-style:normal;font-variant:normal;font-weight:normal;font-stretch:normal;font-size:10.58333302px;line-height:1.25;font-family:'Know Your Product';-inkscape-font-specification:'Know Your Product';letter-spacing:0px;word-spacing:0px;fill:url(#linearGradient4583);fill-opacity:1;stroke:#faff7d;stroke-width:0.1984375;stroke-opacity:1;stroke-miterlimit:4;stroke-dasharray:none"
       x="30.994047"
       y="77.773811"
       id="text12"><tspan
         sodipodi:role="line"
         id="tspan10"
         x="30.994047"
         y="77.773811"
         style="stroke-width:0.1984375;font-size:25.4px;fill:url(#linearGradient4583);fill-opacity:1;stroke:#faff7d;stroke-opacity:1;stroke-miterlimit:4;stroke-dasharray:none">Teeworlds-Stats</tspan></text>
  </g>
</svg>
